<svg width="32" height="32" viewBox="0 0 32 32" fill="none" xmlns="http://www.w3.org/2000/svg">
<path d="M14.6668 2.66666C17.257 2.66626 19.7589 3.60841 21.7055 5.31725C23.6521 7.02609 24.9103 9.38486 25.2454 11.9533L28.2454 16.672C28.4428 16.9827 28.4028 17.4453 27.9454 17.6427L25.3334 18.76V22.6667C25.3334 23.3739 25.0525 24.0522 24.5524 24.5523C24.0523 25.0524 23.374 25.3333 22.6668 25.3333H20.0014L20.0001 29.3333H8.0001V24.408C8.0001 22.8347 7.41877 21.3453 6.3401 20.0013C5.0837 18.4326 4.29607 16.5408 4.06796 14.544C3.83984 12.5471 4.18053 10.5265 5.05075 8.71482C5.92098 6.90315 7.28535 5.37421 8.98664 4.30415C10.6879 3.23409 12.6569 2.66646 14.6668 2.66666ZM13.9601 10.3507C13.5201 9.92554 12.9308 9.69023 12.319 9.69542C11.7072 9.70062 11.1219 9.94589 10.6892 10.3784C10.2565 10.811 10.011 11.3961 10.0055 12.0079C10.0001 12.6197 10.2352 13.2092 10.6601 13.6493L14.6668 17.6573L18.6734 13.6493C18.8962 13.434 19.074 13.1765 19.1962 12.8918C19.3184 12.6071 19.3827 12.3009 19.3853 11.9911C19.388 11.6813 19.3289 11.3741 19.2115 11.0873C19.0941 10.8006 18.9208 10.5401 18.7017 10.3211C18.4826 10.102 18.222 9.92883 17.9352 9.81156C17.6484 9.6943 17.3412 9.63533 17.0314 9.63808C16.7215 9.64083 16.4154 9.70526 16.1307 9.82761C15.8461 9.94995 15.5886 10.1278 15.3734 10.3507L14.6668 11.0573L13.9601 10.3507Z" fill="#0D99FF"/>
</svg>
